<?xml version="1.0" encoding="UTF-8" standalone="no"?>
<!-- Created with Inkscape (http://www.inkscape.org/) -->

<svg
   xmlns:dc="http://purl.org/dc/elements/1.1/"
   xmlns:cc="http://creativecommons.org/ns#"
   xmlns:rdf="http://www.w3.org/1999/02/22-rdf-syntax-ns#"
   xmlns:svg="http://www.w3.org/2000/svg"
   xmlns="http://www.w3.org/2000/svg"
   xmlns:sodipodi="http://sodipodi.sourceforge.net/DTD/sodipodi-0.dtd"
   xmlns:inkscape="http://www.inkscape.org/namespaces/inkscape"
   width="598.31384mm"
   height="161.17003mm"
   viewBox="0 0 598.31384 161.17003"
   version="1.1"
   id="svg8"
   sodipodi:docname="MishmashLogo1.svg"
   inkscape:version="0.92.4 (5da689c313, 2019-01-14)">
  <defs
     id="defs2" />
  <sodipodi:namedview
     id="base"
     pagecolor="#ffffff"
     bordercolor="#666666"
     borderopacity="1.0"
     inkscape:pageopacity="0.0"
     inkscape:pageshadow="2"
     inkscape:zoom="0.125"
     inkscape:cx="-3265.3445"
     inkscape:cy="1414.7922"
     inkscape:document-units="mm"
     inkscape:current-layer="layer1"
     showgrid="false"
     inkscape:window-width="1920"
     inkscape:window-height="1001"
     inkscape:window-x="-9"
     inkscape:window-y="-9"
     inkscape:window-maximized="1" />
  <metadata
     id="metadata5">
    <rdf:RDF>
      <cc:Work
         rdf:about="">
        <dc:format>image/svg+xml</dc:format>
        <dc:type
           rdf:resource="http://purl.org/dc/dcmitype/StillImage" />
        <dc:title />
      </cc:Work>
    </rdf:RDF>
  </metadata>
  <g
     inkscape:label="Layer 1"
     inkscape:groupmode="layer"
     id="layer1"
     transform="translate(395.11245,-61.736972)">
    <g
       id="g5216"
       transform="matrix(8.480388,0,0,13.508041,-546.72308,-1426.3608)">
      <ellipse
         transform="matrix(0.99743974,0.07151205,-0.06773804,0.99770314,0,0)"
         style="opacity:1;fill:#e2687b;fill-opacity:1;stroke:#5c2d50;stroke-width:0.10000036;stroke-linecap:butt;stroke-linejoin:round;stroke-miterlimit:4;stroke-dasharray:none;stroke-opacity:0.94117647;paint-order:stroke markers fill"
         id="use4760"
         cx="41.111004"
         cy="113.58201"
         rx="4.897892"
         ry="5.0887008" />
      <ellipse
         transform="matrix(0.99743974,0.07151205,-0.06773804,0.99770314,0,0)"
         ry="5.0887008"
         rx="4.8978915"
         cy="113.58231"
         cx="40.640926"
         id="path815"
         style="opacity:1;fill:#fb7489;fill-opacity:1;stroke:#5c2d50;stroke-width:0.10000036;stroke-linecap:butt;stroke-linejoin:round;stroke-miterlimit:4;stroke-dasharray:none;stroke-opacity:0.94117647;paint-order:stroke markers fill" />
      <ellipse
         ry="0.84951133"
         rx="0.7435751"
         cy="113.74451"
         cx="38.569656"
         id="path817-9-4"
         style="opacity:1;fill:#5c2d50;fill-opacity:1;stroke:#5c2d50;stroke-width:0.1000003;stroke-linecap:butt;stroke-linejoin:round;stroke-miterlimit:4;stroke-dasharray:none;stroke-opacity:0.94117647;paint-order:stroke markers fill"
         transform="matrix(0.9974506,0.07136038,-0.06788211,0.99769335,0,0)" />
      <ellipse
         transform="matrix(0.99743974,0.07151205,-0.06773804,0.99770314,0,0)"
         ry="0.88913047"
         rx="0.80776733"
         cy="111.78001"
         cx="40.627373"
         id="path817-8"
         style="opacity:1;fill:none;fill-opacity:1;stroke:#5c2d50;stroke-width:0.10000036;stroke-linecap:butt;stroke-linejoin:round;stroke-miterlimit:4;stroke-dasharray:none;stroke-opacity:0.94117647;paint-order:stroke markers fill" />
      <ellipse
         transform="matrix(0.99743974,0.07151205,-0.06773804,0.99770314,0,0)"
         ry="0.88913047"
         rx="0.80776733"
         cy="113.70064"
         cx="38.488823"
         id="path817-9"
         style="opacity:1;fill:none;fill-opacity:1;stroke:#5c2d50;stroke-width:0.10000036;stroke-linecap:butt;stroke-linejoin:round;stroke-miterlimit:4;stroke-dasharray:none;stroke-opacity:0.94117647;paint-order:stroke markers fill" />
      <ellipse
         transform="matrix(0.99743974,0.07151205,-0.06773804,0.99770314,0,0)"
         ry="0.88913047"
         rx="0.80776733"
         cy="115.86883"
         cx="40.749813"
         id="path817-0"
         style="opacity:1;fill:none;fill-opacity:1;stroke:#5c2d50;stroke-width:0.10000036;stroke-linecap:butt;stroke-linejoin:round;stroke-miterlimit:4;stroke-dasharray:none;stroke-opacity:0.94117647;paint-order:stroke markers fill" />
      <ellipse
         transform="matrix(0.99743974,0.07151205,-0.06773804,0.99770314,0,0)"
         ry="0.85712177"
         rx="0.75324297"
         cy="115.93767"
         cx="40.801315"
         id="path817-9-4-5"
         style="opacity:1;fill:#5c2d50;fill-opacity:1;stroke:#5c2d50;stroke-width:0.10000036;stroke-linecap:butt;stroke-linejoin:round;stroke-miterlimit:4;stroke-dasharray:none;stroke-opacity:0.94117647;paint-order:stroke markers fill" />
      <ellipse
         transform="matrix(0.99743974,0.07151205,-0.06773804,0.99770314,0,0)"
         ry="0.88913047"
         rx="0.80776733"
         cy="113.7718"
         cx="42.851879"
         id="path817"
         style="opacity:1;fill:none;fill-opacity:1;stroke:#5c2d50;stroke-width:0.10000036;stroke-linecap:butt;stroke-linejoin:round;stroke-miterlimit:4;stroke-dasharray:none;stroke-opacity:0.94117647;paint-order:stroke markers fill" />
      <ellipse
         transform="matrix(0.99743974,0.07151205,-0.06773804,0.99770314,0,0)"
         ry="0.86112285"
         rx="0.74155921"
         cy="113.81308"
         cx="42.908291"
         id="path817-9-4-2"
         style="opacity:1;fill:#5c2d50;fill-opacity:1;stroke:#5c2d50;stroke-width:0.10000036;stroke-linecap:butt;stroke-linejoin:round;stroke-miterlimit:4;stroke-dasharray:none;stroke-opacity:0.94117647;paint-order:stroke markers fill" />
      <ellipse
         ry="0.81696749"
         rx="0.74647939"
         cy="111.69725"
         cx="40.404213"
         id="path817-9-4-7"
         style="opacity:1;fill:#5c2d50;fill-opacity:1;stroke:#5c2d50;stroke-width:0.10000217;stroke-linecap:butt;stroke-linejoin:round;stroke-miterlimit:4;stroke-dasharray:none;stroke-opacity:0.94117647;paint-order:stroke markers fill"
         transform="matrix(0.99722859,0.07439858,-0.06510756,0.99787825,0,0)" />
      <path
         sodipodi:nodetypes="sscccccccccccccccccccccccccccccccccccccccccccccccccccccccccccccccccccccccccccccccccccccccccccccccccccccccccccccccccccccaas"
         inkscape:connector-curvature="0"
         d="m 35.718819,116.73062 c -0.04259,0.16684 -0.143479,0.25268 -0.244753,0.49705 -0.09193,0.22183 -0.173472,0.41969 -0.19006,0.65819 -0.01004,0.26142 -7.21e-4,0.5266 0.04151,0.78504 0.04025,0.23777 0.07311,0.47821 0.150266,0.70739 0.05848,0.18554 0.127754,0.37009 0.21519,0.5442 0.104495,0.17124 0.235662,0.31743 0.37945,0.45675 0.188267,0.16783 0.41817,0.27331 0.646887,0.37332 0.243809,0.10252 0.491728,0.19484 0.739191,0.28805 0.249756,0.0994 0.520687,0.1238 0.786324,0.14462 0.266917,0.0158 0.525463,-0.0474 0.788043,-0.0808 0.557422,-0.10529 -0.818554,0.17639 -0.613553,0.13401 0.342632,-0.0708 0.685413,-0.14105 1.027198,-0.21588 0.250752,-0.0549 -0.502289,0.1062 -0.75408,0.15609 -0.08518,0.0169 0.168417,-0.0424 0.252607,-0.0637 0.267709,-0.0804 0.507789,-0.22414 0.73297,-0.38649 0.220685,-0.17752 0.404249,-0.39259 0.58967,-0.60502 0.197423,-0.23209 0.374964,-0.47927 0.560181,-0.72096 0.206449,-0.28733 0.411238,-0.5756 0.613975,-0.86561 0.221113,-0.32993 0.440204,-0.66104 0.661452,-0.99091 0.237828,-0.39134 0.494669,-0.77051 0.760028,-1.14357 0.296512,-0.43062 0.56264,-0.88065 0.86965,-1.30411 0.324816,-0.44155 0.645022,-0.88643 0.967342,-1.32982 0.296238,-0.42183 0.594471,-0.84255 0.90683,-1.25263 0.247023,-0.33899 0.497172,-0.67651 0.719936,-1.0322 0.175764,-0.24662 0.335702,-0.50365 0.513636,-0.74865 0.02596,-0.0373 0.05192,-0.0745 0.07787,-0.11182 0.02417,-0.0348 0.100182,-0.16509 0.110778,-0.16582 0.941444,-0.0647 0.978773,-0.31772 0.87355,0.0633 -0.104257,0.30656 -0.224947,0.60726 -0.341327,0.90935 -0.163484,0.42235 -0.32585,0.84514 -0.487745,1.26809 -0.18699,0.4893 -0.373484,0.97879 -0.559979,1.46827 -0.204255,0.47681 -0.334469,0.97837 -0.478106,1.4753 -0.152388,0.43831 -0.251451,0.8913 -0.370244,1.33913 -0.10207,0.33685 -0.162647,0.68431 -0.196174,1.03411 -0.04256,0.262 -0.01753,0.52627 0.07185,0.77546 0.06072,0.24853 0.192388,0.44983 0.359352,0.63899 0.174454,0.18897 0.371025,0.25747 0.6215,0.22716 0.461614,-0.10944 -0.308939,0.0753 -0.603167,0.10894 -0.05408,0.006 0.09847,-0.0466 0.146207,-0.0728 0.161681,-0.0888 0.306202,-0.19746 0.450069,-0.31197 0.313346,-0.26551 0.582567,-0.57784 0.845289,-0.89216 0.280538,-0.35679 0.516801,-0.74418 0.760884,-1.12596 0.262312,-0.41452 0.458274,-0.86495 0.6462,-1.31656 0.166851,-0.40984 0.323577,-0.82372 0.479803,-1.2377 0.14061,-0.37214 0.281781,-0.74407 0.423695,-1.11571 0.174184,-0.41035 0.30268,-0.83448 0.420159,-1.26371 0.109075,-0.40319 0.24049,-0.79965 0.378609,-1.19365 0.257093,-0.70203 -0.0062,-0.47825 1.055528,-0.54899 -0.138091,0.3102 -0.220954,0.63768 -0.308993,0.9643 -0.138716,0.48624 -0.246463,0.98087 -0.349403,1.47575 -0.112992,0.51224 -0.216196,1.02659 -0.308643,1.54293 -0.109448,0.47877 -0.162246,0.96714 -0.244847,1.45051 -0.05676,0.42209 -0.13142,0.84118 -0.165411,1.26597 -0.02865,0.33378 -0.01814,0.66988 0.011,1.00321 0.0063,0.27895 0.08416,0.54092 0.24405,0.76895 0.149054,0.23105 0.367345,0.3829 0.604977,0.51064 0.259352,0.13659 0.531678,0.22911 0.817196,0.28995 0.253847,0.0588 0.517928,0.0475 0.77698,0.0495 0.321585,-0.0474 0.900629,-0.13649 -0.552723,0.12907 -0.03609,0.007 0.130541,-0.035 0.233982,-0.16003 0.01489,-0.0309 0.0299,-0.0619 0.04478,-0.0928 l 0.908343,-0.13748 v 0 c -0.01398,0.0364 -0.02795,0.0728 -0.04192,0.10927 -0.264457,0.48065 -0.957866,0.40297 -1.455184,0.46438 -0.261691,-2.9e-4 -0.526761,-0.004 -0.781846,-0.0689 -0.288644,-0.0686 -0.565355,-0.17281 -0.826589,-0.31464 -0.243636,-0.1413 -0.462748,-0.31107 -0.616444,-0.55205 -0.159228,-0.2454 -0.248107,-0.51987 -0.253044,-0.81429 -0.03042,-0.33834 -0.0401,-0.67984 -0.01108,-1.01864 0.03228,-0.42812 0.110038,-0.84963 0.166691,-1.27488 0.08452,-0.48331 0.134827,-0.97238 0.245208,-1.4512 0.09354,-0.51707 0.196272,-1.03244 0.309453,-1.54555 0.102919,-0.49607 0.208366,-0.99239 0.345337,-1.48028 0.08721,-0.32836 0.163356,-0.6591 0.299058,-0.97202 1.159718,-0.2773 1.012296,-0.45456 0.756423,0.26476 -0.140351,0.39169 -0.273783,0.786 -0.383128,1.18765 -0.118647,0.43126 -0.239605,0.86035 -0.417284,1.27207 -0.14086,0.37194 -0.282176,0.74371 -0.423031,1.11565 -0.158244,0.4146 -0.314521,0.83001 -0.482025,1.241 -0.189581,0.45537 -0.382779,0.91156 -0.643339,1.33202 -0.244134,0.38473 -0.483,0.7729 -0.757628,1.13706 -0.262544,0.31894 -0.533267,0.63414 -0.842257,0.90939 -0.534975,0.45209 -0.989184,0.62707 -1.762908,0.68652 -0.264268,-0.003 -0.470482,-0.10692 -0.646208,-0.30731 -0.168499,-0.201 -0.303999,-0.41419 -0.367924,-0.67213 -0.08982,-0.26212 -0.124135,-0.53959 -0.07809,-0.81466 0.03409,-0.35493 0.09235,-0.70828 0.197866,-1.04974 0.120562,-0.44825 0.21783,-0.90263 0.371635,-1.34138 0.1457,-0.49878 0.273468,-1.0037 0.478333,-1.4828 0.186426,-0.48937 0.372831,-0.97874 0.559163,-1.46814 0.160927,-0.42265 0.321534,-0.84541 0.483289,-1.26773 0.115123,-0.29907 0.232272,-0.59756 0.336505,-0.90063 0.119116,-0.39235 -0.01138,-0.0547 0.956814,-0.27253 0.0093,-0.002 -0.01265,-0.0224 -0.02172,-0.0191 -0.08562,0.0312 -0.113261,0.19279 -0.180514,0.24033 -0.178295,0.24368 -0.338192,0.49888 -0.517189,0.74231 -0.222085,0.36 -0.475939,0.69861 -0.722666,1.04181 -0.317106,0.40623 -0.61292,0.82917 -0.909479,1.25054 -0.323786,0.44232 -0.641359,0.88911 -0.967162,1.32995 -0.310616,0.42027 -0.575696,0.87001 -0.867892,1.30285 -0.266363,0.37061 -0.523813,0.74832 -0.75789,1.14028 -0.219432,0.33133 -0.441913,0.66029 -0.660281,0.99234 -0.2002,0.29261 -0.409138,0.5786 -0.61128,0.8697 -0.185603,0.24287 -0.363939,0.49038 -0.558347,0.72614 -0.185795,0.21793 -0.372981,0.43428 -0.587865,0.62454 -0.222534,0.17454 -0.464385,0.32043 -0.729204,0.42219 -0.419431,0.11143 -0.848094,0.19136 -1.269795,0.28985 -0.247071,0.0577 0.992152,-0.21344 0.743455,-0.1632 -1.392919,0.28135 -0.639049,0.15841 -1.159541,0.24163 -0.263369,0.0403 -0.526726,0.0842 -0.794464,0.0614 -0.270385,-0.0239 -0.542289,-0.0643 -0.794822,-0.16872 -0.248369,-0.0941 -0.497241,-0.18731 -0.740844,-0.29328 -0.234998,-0.10741 -0.468514,-0.22399 -0.657173,-0.40462 -0.147652,-0.14861 -0.284872,-0.30299 -0.388641,-0.48633 -0.08571,-0.17963 -0.159516,-0.36624 -0.217046,-0.55669 -0.07557,-0.23468 -0.11234,-0.47894 -0.151915,-0.72178 -0.04279,-0.26495 -0.05448,-0.53651 -0.0463,-0.80454 0.01154,-0.24724 0.04819,-1.21451 0.385055,-1.67984 0.154671,-0.21366 0.428992,-0.49721 0.677512,-0.40883 0.255162,0.0907 0.341363,0.50231 0.274383,0.76472 z"
         id="path5001"
         style="opacity:1;fill:#fffbec;fill-opacity:1;stroke:#5c2d50;stroke-width:0.30000001;stroke-linecap:butt;stroke-linejoin:round;stroke-miterlimit:4;stroke-dasharray:none;stroke-opacity:0.94117647;paint-order:stroke markers fill" />
      <path
         inkscape:connector-curvature="0"
         d="m 55.121182,115.69061 c -0.157669,0.50048 -0.305137,1.00356 -0.428049,1.5137 -0.121644,0.47443 -0.209153,0.95676 -0.287814,1.43987 -0.06585,0.31561 -0.101367,0.64776 -0.225731,0.94771 -0.0094,0.0158 -0.01893,0.0314 -0.02836,0.0472 0,0 -0.91663,0.10761 -0.91663,0.10761 v 0 c 0.01145,-0.007 0.02298,-0.0145 0.03447,-0.0217 0.159063,-0.27247 0.158631,-0.62391 0.23906,-0.92261 0.07961,-0.48544 0.16739,-0.97024 0.289613,-1.44706 0.12355,-0.51238 0.275559,-1.01591 0.416736,-1.52365 0,0 0.906667,-0.14106 0.906667,-0.14106 z"
         id="path5003"
         style="opacity:1;fill:#fffbec;fill-opacity:1;stroke:#5c2d50;stroke-width:0.30000001;stroke-linecap:butt;stroke-linejoin:round;stroke-miterlimit:4;stroke-dasharray:none;stroke-opacity:0.94117647;paint-order:stroke markers fill" />
      <path
         sodipodi:nodetypes="aaaaa"
         inkscape:connector-curvature="0"
         d="m 54.418682,114.13491 c 0.0031,-0.285 0.456868,-0.57954 0.717739,-0.46473 0.161007,0.0709 0.150379,0.35602 0.08771,0.52039 -0.05049,0.13244 -0.190253,0.26024 -0.331882,0.26583 -0.190646,0.008 -0.475647,-0.13071 -0.473569,-0.32149 z"
         id="path5005"
         style="opacity:1;fill:#fffbec;fill-opacity:1;stroke:#5c2d50;stroke-width:0.30000001;stroke-linecap:butt;stroke-linejoin:round;stroke-miterlimit:4;stroke-dasharray:none;stroke-opacity:0.94117647;paint-order:stroke markers fill" />
      <path
         inkscape:connector-curvature="0"
         d="m 57.724621,115.79073 c -0.02113,-0.30683 -0.04714,-0.66671 -0.314848,-0.86104 -0.103531,-0.0619 -0.200207,-0.0709 -0.316618,-0.0457 -0.04095,0.009 -0.162113,0.0416 -0.120871,0.0342 0.766794,-0.13677 1.006727,-0.26625 0.640207,-0.0886 -0.250152,0.13859 -0.453989,0.32752 -0.619685,0.55842 -0.110119,0.18325 -0.110322,0.36463 -0.03733,0.55884 0.117944,0.20932 0.334977,0.33721 0.528089,0.47064 0.263324,0.18465 0.568884,0.29048 0.847475,0.44649 0.25789,0.15872 0.537586,0.27363 0.767454,0.47291 0.192019,0.16198 0.346234,0.36618 0.458773,0.59011 0.07065,0.2291 0.07392,0.47746 0.01959,0.70981 -0.08291,0.26189 -0.218893,0.4963 -0.388393,0.71059 -0.22664,0.25076 -0.529909,0.4052 -0.82722,0.55531 -0.565437,0.22897 -1.182243,0.43319 -1.797258,0.37017 -0.280624,-0.0368 -0.486229,-0.18097 -0.615808,-0.42688 -0.10285,-0.25973 -0.06044,-0.51405 0.04724,-0.76227 0.189693,-0.34315 0.511962,-0.57958 0.808697,-0.82446 0.416593,-0.34326 0.872496,-0.63391 1.301319,-0.96184 0.547787,-0.38116 1.004215,-0.86416 1.447075,-1.35857 0.508977,-0.57304 0.880007,-1.23882 1.248617,-1.90503 0.322166,-0.57507 0.597681,-1.17386 0.853188,-1.78093 0.122821,-0.32088 0.271255,-0.66247 0.261484,-1.01299 -0.0095,-0.0122 -0.01373,-0.0324 -0.02863,-0.0361 -0.01438,-0.003 -0.05429,0.022 -0.03973,0.0195 0.280942,-0.0473 0.558347,-0.11591 0.84063,-0.15448 0.03217,-0.004 -0.05801,0.0302 -0.08297,0.051 -0.08719,0.0725 -0.130297,0.14447 -0.198166,0.2365 -0.293669,0.47798 -0.504009,1.00378 -0.68869,1.53185 -0.233047,0.67394 -0.36421,1.37858 -0.450059,2.08497 -0.07169,0.64858 -0.06481,1.30233 -0.0099,1.9516 0.04321,0.49979 0.151005,0.99133 0.283799,1.47419 0.05523,0.1181 0.08328,0.31687 0.210133,0.39345 0.04334,0.0262 0.20107,-0.0229 0.151192,-0.0143 -0.27114,0.0468 -0.540362,0.10416 -0.810542,0.15624 0.262164,-0.23934 0.365564,-0.60979 0.517086,-0.92275 0.204092,-0.42693 0.425288,-0.84397 0.652289,-1.25898 0.190837,-0.34141 0.424717,-0.65039 0.709771,-0.91775 0.390782,-0.35047 1.055347,-0.65168 1.537347,-0.36361 0.294923,0.18931 0.382742,0.53431 0.43225,0.8603 0.05409,0.43001 0.02974,0.86726 -0.0035,1.29819 -0.05168,0.4495 -0.122409,0.8962 -0.184845,1.34426 -0.03704,0.29366 -0.12229,0.58676 -0.111561,0.88493 0.0033,9.8e-4 0.0064,0.002 0.0097,0.003 -0.287087,0.0357 -0.574174,0.0714 -0.861261,0.10708 0,0 0.913396,-0.11786 0.913396,-0.11786 v 0 c -0.965553,0.23397 -0.841581,0.53744 -0.965963,0.18468 -0.0039,-0.30396 0.07314,-0.60268 0.117986,-0.9014 0.06374,-0.44622 0.133417,-0.89133 0.187114,-1.33892 0.03371,-0.42382 0.05732,-0.85421 0.0049,-1.2772 -0.04569,-0.30128 -0.125494,-0.61815 -0.4149,-0.7729 -0.03231,-0.0115 -0.06325,-0.0284 -0.09678,-0.0347 -0.03346,-0.005 -0.134178,0.01 -0.101444,10e-4 1.436944,-0.37321 0.724976,-0.23563 0.447748,0.0251 -0.294688,0.24873 -0.522608,0.5559 -0.717725,0.88728 -0.227342,0.41366 -0.4519,0.82736 -0.652657,1.25484 -0.162768,0.32762 -0.273961,0.68763 -0.501943,0.97816 -0.901231,0.22478 -1.086784,0.52673 -1.357158,-0.26252 -0.132394,-0.48883 -0.240323,-0.98591 -0.282561,-1.49149 -0.05336,-0.65561 -0.06104,-1.31533 0.0095,-1.97026 0.08573,-0.7121 0.216917,-1.42272 0.446352,-2.10368 0.181209,-0.53491 0.394075,-1.06398 0.67439,-1.55536 0.244703,-0.36906 0.94609,-1.12117 1.31768,-0.41118 0.0071,0.36468 -0.132708,0.71995 -0.266448,1.05312 -0.259232,0.60973 -0.534916,1.21268 -0.858612,1.79145 -0.37243,0.66921 -0.736854,1.344 -1.244526,1.92455 -0.440899,0.49861 -0.892491,0.99047 -1.440489,1.37488 -0.425557,0.33017 -0.87891,0.62131 -1.298162,0.9584 -0.287955,0.23825 -0.603714,0.46283 -0.807021,0.78264 -0.10569,0.21951 -0.161119,0.44254 -0.0628,0.67829 0.126957,0.21982 0.335942,0.32 0.588101,0.33968 0.352508,0.0136 0.826213,-0.12499 -0.45575,0.16215 -0.05247,0.0118 0.10524,-0.0224 0.156831,-0.0375 0.07778,-0.0228 0.245576,-0.0873 0.32106,-0.11557 0.29252,-0.14321 0.592383,-0.28729 0.828395,-0.51705 0.173034,-0.19879 0.304206,-0.42214 0.392995,-0.67107 0.06217,-0.20702 0.05444,-0.43663 -0.0074,-0.64355 -0.111804,-0.21185 -0.259483,-0.40399 -0.446715,-0.55497 -0.233325,-0.18414 -0.508661,-0.30049 -0.760997,-0.45613 -0.285429,-0.14909 -0.588289,-0.26694 -0.851651,-0.45618 -0.207126,-0.14676 -0.432343,-0.2865 -0.544991,-0.52367 -0.08037,-0.22041 -0.08593,-0.43157 0.0239,-0.64571 0.162828,-0.24587 0.362886,-0.44691 0.615136,-0.60301 0.420877,-0.23276 0.11398,-0.077 1.129203,-0.31701 0.170087,-0.0402 0.322789,-0.0127 0.464357,0.0908 0.256461,0.24428 0.306497,0.59414 0.332813,0.93501 0,0 -0.900614,0.17773 -0.900614,0.17773 z"
         id="path5007"
         style="opacity:1;fill:#fffbec;fill-opacity:1;stroke:#5c2d50;stroke-width:0.30000001;stroke-linecap:butt;stroke-linejoin:round;stroke-miterlimit:4;stroke-dasharray:none;stroke-opacity:0.94117647;paint-order:stroke markers fill" />
      <path
         sodipodi:nodetypes="ccccccccccccccccccccccccccccccccccccccccccccccccccccccccccccccccccccc"
         inkscape:connector-curvature="0"
         d="m 67.119854,115.54274 c 0.06773,0.42041 0.08538,0.83936 0.07512,1.26394 -0.01697,0.33261 -0.05483,0.66442 -0.09565,0.99499 -0.04112,0.27308 -0.06167,0.54732 -0.118573,0.81802 -0.01069,0.14095 -0.03692,0.28194 -0.04,0.42347 -2.18e-4,0.0127 -0.0015,0.0497 0.003,0.0379 0.0055,-0.0147 3.1e-4,-0.0314 4.15e-4,-0.0469 -0.284232,0.0428 -0.565606,0.11426 -0.852693,0.12845 -0.03091,0.001 0.02194,-0.058 0.03024,-0.0878 0.04349,-0.15604 0.06717,-0.31888 0.104895,-0.47653 0.0629,-0.26382 0.149022,-0.51724 0.279682,-0.75485 0.130085,-0.2474 0.291823,-0.47531 0.457175,-0.69999 0.177311,-0.25993 0.371126,-0.50571 0.57971,-0.741 0.181636,-0.19696 0.383474,-0.37342 0.586868,-0.54727 0.440749,-0.27266 1.073855,-0.53893 1.547932,-0.2528 0.221398,0.19202 0.268879,0.46538 0.298288,0.74208 0.0013,0.27366 -0.01092,0.54739 -0.05467,0.8179 -0.05555,0.27201 -0.08496,0.54754 -0.146466,0.81857 -0.06855,0.26085 -0.09864,0.52917 -0.159743,0.79193 -0.01154,0.0432 -0.02313,0.0865 -0.03471,0.12975 -0.0087,0.0324 -0.01765,0.0649 -0.02611,0.0974 -0.0051,0.0192 0.0058,0.056 -0.01397,0.058 -0.912736,0.0909 -0.992103,0.35626 -0.844585,-0.002 0.09149,-0.27372 0.244335,-0.51887 0.379073,-0.77224 0.160406,-0.32122 0.293381,-0.65338 0.463619,-0.96971 0.1587,-0.30034 0.326892,-0.59708 0.525129,-0.87329 0.144512,-0.19934 0.303151,-0.38451 0.505919,-0.5257 0.48174,-0.22739 1.045254,-0.39536 1.5731,-0.38399 0.213059,0.0375 0.355579,0.18149 0.515627,0.31127 0.173606,0.1787 0.235816,0.41591 0.26221,0.65672 0.05163,0.28959 -0.0055,0.5724 -0.05,0.85748 -0.03769,0.32534 -0.124197,0.64084 -0.221113,0.95268 -0.09349,0.26559 -0.172137,0.53901 -0.29795,0.79157 -0.669815,0.459 -0.743839,-0.28406 -0.605678,-0.64552 0.09811,-0.30685 0.186501,-0.61747 0.223445,-0.93858 0.04017,-0.27761 0.105451,-0.55211 0.05236,-0.83419 -0.02212,-0.2186 -0.0787,-0.43378 -0.24693,-0.58682 -0.147883,-0.12237 -0.291003,-0.24551 -0.494441,-0.24927 -0.372809,0.0283 -0.177809,0.0189 0.660468,-0.16485 0.03807,-0.008 -0.07614,0.017 -0.113309,0.0286 -0.07774,0.0243 -0.155962,0.0475 -0.232774,0.0746 -0.03787,0.0134 -0.07344,0.0326 -0.110153,0.0489 -0.214089,0.1145 -0.36684,0.30113 -0.512041,0.4919 -0.209172,0.26395 -0.367432,0.56575 -0.529118,0.86015 -0.17267,0.3147 -0.308536,0.6442 -0.462638,0.96814 -0.129905,0.25209 -0.288691,0.4905 -0.375725,0.76222 -0.149343,0.38607 -0.01318,0.10602 -0.973774,0.31284 -0.0073,0.001 -9.74e-4,-0.0151 5.39e-4,-0.0225 0.01078,-0.0522 0.02949,-0.1024 0.04407,-0.15365 0.01201,-0.0422 0.02351,-0.0845 0.03524,-0.12676 0.06367,-0.26231 0.09287,-0.53052 0.159943,-0.79152 0.06404,-0.26894 0.0928,-0.54261 0.147661,-0.81298 0.04563,-0.26247 0.05591,-0.52779 0.05927,-0.79362 -0.0249,-0.2462 -0.05934,-0.5003 -0.276752,-0.65339 -0.03472,-0.0143 -0.06788,-0.0333 -0.10413,-0.0429 -0.03545,-0.009 -0.144827,-3.9e-4 -0.10954,-0.0104 0.25425,-0.072 0.515635,-0.11599 0.772639,-0.17746 0.04369,-0.0104 -0.319674,0.0629 -0.316277,0.11886 -0.211901,0.15825 -0.400303,0.34935 -0.591144,0.532 -0.20742,0.23395 -0.410107,0.47029 -0.580853,0.73331 -0.166131,0.21996 -0.326848,0.4452 -0.457421,0.68827 -0.132589,0.22914 -0.223069,0.4712 -0.283196,0.72982 -0.193747,0.78936 0.118527,0.52805 -1.067428,0.87273 -0.07475,-0.1672 0.01902,-0.36779 0.01293,-0.54409 0.05973,-0.268 0.07994,-0.53957 0.120736,-0.81039 0.04328,-0.32762 0.07945,-0.65693 0.101294,-0.98653 0.0107,-0.41894 9.62e-4,-0.8329 -0.077,-1.24678 l 0.898064,-0.18791 z"
         id="path5009"
         style="opacity:1;fill:#fffbec;fill-opacity:1;stroke:#5c2d50;stroke-width:0.30000001;stroke-linecap:butt;stroke-linejoin:round;stroke-miterlimit:4;stroke-dasharray:none;stroke-opacity:0.94117647;paint-order:stroke markers fill" />
      <path
         inkscape:connector-curvature="0"
         d="m 75.52379,116.96277 c 0.489699,0.0277 0.981123,10e-4 1.469696,-0.0353 0.265515,-0.0299 0.529392,-0.0714 0.794769,-0.10186 0,0 -0.855713,0.32191 -0.855713,0.32191 v 0 c -0.263953,0.0333 -0.527319,0.0711 -0.792304,0.0959 -0.492235,0.0308 -0.985526,0.0538 -1.478695,0.0314 0,0 0.862247,-0.3121 0.862247,-0.3121 z"
         id="path5013"
         style="opacity:1;fill:#fffbec;fill-opacity:1;stroke:#5c2d50;stroke-width:0.1;stroke-linecap:butt;stroke-linejoin:round;stroke-miterlimit:4;stroke-dasharray:none;stroke-opacity:0.94117647;paint-order:stroke markers fill" />
      <path
         sodipodi:nodetypes="ccccccccccccccccccccccccccccc"
         inkscape:connector-curvature="0"
         d="m 75.479705,115.78836 c -0.14868,0.49216 -0.249032,0.99645 -0.379063,1.49356 -0.111908,0.42124 -0.280428,0.89876 -0.426969,1.309 -0.252094,0.67767 0.216165,0.3592 -0.986201,0.46536 0.178141,-1.45917 0.167194,-1.44485 0.546974,-2.23712 0.265349,-0.5259 0.547825,-0.98256 0.939616,-1.3521 0.185354,-0.18828 0.396006,-0.34499 0.623426,-0.4778 0.443287,-0.22045 1.003803,-0.4811 1.490239,-0.31333 0.260342,0.13943 0.359835,0.40068 0.441974,0.66715 0.0629,0.38075 0.05238,0.77097 0.01473,1.15375 -0.07334,0.41785 -0.179778,0.82926 -0.275141,1.24276 -0.08766,0.36682 -0.205701,0.72499 -0.331755,1.08008 -0.279857,0.7675 -0.04364,0.42244 -0.187622,0.72688 v 0 c -0.191542,0.0574 -0.961236,0.61965 -1.00344,0.17043 0.102199,-0.24914 0.193533,-0.50262 0.287863,-0.7548 0.126558,-0.35184 0.246576,-0.70648 0.335275,-1.07008 0.09632,-0.40964 0.197945,-0.81833 0.277353,-1.23133 0.03885,-0.37032 0.04896,-0.74813 -0.01148,-1.11678 -0.07559,-0.23968 -0.164314,-0.48251 -0.419848,-0.57762 -0.367333,-0.0702 -0.113204,-0.008 0.695205,-0.20575 0.03298,-0.008 -0.06758,0.008 -0.100394,0.0173 -0.10557,0.0284 -0.09466,0.041 -0.194207,0.0883 -0.03401,0.0162 -0.06959,0.0289 -0.104384,0.0434 -0.223524,0.13326 -0.447897,0.26498 -0.627121,0.45875 -0.21088,0.18961 -0.414747,0.39121 -0.586865,0.61696 -0.587905,0.853 -0.742804,2.0609 -0.943403,2.96013 -1.427002,-0.16246 -0.369168,-2.79619 0.925101,-3.157 z"
         id="path5011"
         style="opacity:1;fill:#fffbec;fill-opacity:1;stroke:#5c2d50;stroke-width:0.30000001;stroke-linecap:butt;stroke-linejoin:round;stroke-miterlimit:4;stroke-dasharray:none;stroke-opacity:0.94117647;paint-order:stroke markers fill" />
      <path
         sodipodi:nodetypes="ccccccccccccccccccccccccccccccccccccccccccccccccccccccccccccccccccccccccccccccccccccccc"
         inkscape:connector-curvature="0"
         d="m 80.90503,115.95798 c 0.0666,-0.33174 0.0771,-0.59926 -0.18779,-0.83449 -0.0308,-0.0139 -0.06,-0.0325 -0.0926,-0.0406 -0.13041,-0.0301 -1.61598,0.2048 0.55383,-0.13621 0.0881,-0.0138 -0.16309,0.0731 -0.24048,0.1175 -0.19259,0.15273 -0.36821,0.33269 -0.51572,0.52973 -0.0955,0.17423 -0.12918,0.3714 -0.13764,0.56751 0.008,0.20551 0.0779,0.33879 0.23998,0.46056 0.23147,0.0946 0.47699,0.12073 0.7248,0.11454 0.28233,0.004 0.56345,-0.006 0.84411,0.03 0.2524,0.0386 0.49339,0.10526 0.68049,0.28517 0.17473,0.15571 0.20663,0.383 0.21441,0.60519 0.004,0.27586 -0.1018,0.51383 -0.2296,0.75066 -0.13557,0.214 -0.31028,0.3935 -0.49736,0.562 -0.20741,0.18568 -0.46036,0.31257 -0.71358,0.42392 -0.51253,0.14231 -1.12062,0.36168 -1.66862,0.22656 -0.25152,-0.062 -0.45484,-0.20272 -0.663,-0.34774 -0.18312,-0.15206 -0.28407,-0.33333 -0.32604,-0.56564 -0.0375,-0.31695 0.16924,-0.51005 0.4051,-0.68101 0.32411,-0.21434 0.69035,-0.34721 1.04346,-0.50392 0.40909,-0.16786 0.79235,-0.38528 1.1674,-0.61763 0.38458,-0.25936 0.71862,-0.57618 1.02006,-0.92673 0.34751,-0.41603 0.66038,-0.85997 0.96075,-1.31081 0.32315,-0.482 0.6469,-0.9635 0.97246,-1.44386 0.20419,-0.30703 0.40671,-0.61684 0.62547,-0.91391 0.18978,-0.25826 0.0958,-0.14765 0.8874,-0.0509 0.0446,0.005 -0.0451,0.0777 -0.0666,0.11718 -0.0262,0.049 -0.0524,0.098 -0.0773,0.14768 -0.0788,0.15701 -0.1055,0.22129 -0.18032,0.38733 -0.22701,0.51353 -0.36867,1.05976 -0.50184,1.60364 -0.16828,0.58181 -0.26581,1.17719 -0.34187,1.77664 -0.0687,0.52515 -0.10205,1.0514 -0.10634,1.5807 0.05132,1.4443 -1.022925,1.56376 0.41876,-0.0156 0.23951,-0.2571 0.49032,-0.50248 0.7745,-0.70966 0.48627,-0.27286 1.123,-0.51295 1.6567,-0.28846 0.2048,0.12148 0.33061,0.3107 0.45835,0.50373 0.12166,0.21701 0.1548,0.46325 0.19448,0.70472 0.0322,0.28869 0.0738,0.57663 0.0796,0.86736 -0.007,0.24908 4.1e-4,0.49449 -0.0422,0.74099 -0.002,0.11197 -0.0172,0.21485 -0.078,0.30974 l -0.91897,0.0911 v 0 c 0.1076,-0.0125 0.0833,-0.16675 0.0925,-0.24296 0.0459,-0.24066 0.0387,-0.48002 0.047,-0.7237 -0.003,-0.28634 -0.0463,-0.56956 -0.0772,-0.85385 -0.0386,-0.22871 -0.068,-0.46325 -0.18795,-0.66693 -0.11746,-0.17933 -0.24005,-0.35433 -0.44177,-0.44706 -0.17164,-0.051 -0.39596,-0.0133 -0.33769,-0.0282 1.42475,-0.36365 0.75032,-0.20426 0.46571,-0.0534 -0.28836,0.19724 -0.54021,0.43676 -0.77799,0.69227 -0.24918,0.25557 -0.46232,0.54119 -0.693,0.81274 -0.30643,0.37642 -0.94283,0.78762 -1.39866,0.4452 -0.17119,-0.28576 -0.12221,-0.64679 -0.12813,-0.96664 0.004,-0.53307 0.0403,-1.06305 0.10795,-1.59199 0.0772,-0.60254 0.17128,-1.20176 0.34064,-1.78679 0.13346,-0.54803 0.27213,-1.09912 0.495,-1.6188 0.0232,-0.0524 0.28476,-0.65218 0.31404,-0.66106 0.31424,-0.0954 0.64405,-0.12876 0.96596,-0.19362 0.009,-0.002 -0.0195,0.003 -0.0293,0.005 -0.2419,0.27878 -0.42442,0.60949 -0.63919,0.90832 -0.32466,0.48095 -0.652,0.96007 -0.97365,1.44307 -0.29841,0.45441 -0.61124,0.90065 -0.95643,1.32093 -0.29871,0.36076 -0.63283,0.6831 -1.01568,0.95495 -0.37538,0.23443 -0.75432,0.46307 -1.16588,0.62994 -0.34952,0.15752 -0.712,0.28728 -1.04091,0.48703 -0.21368,0.13894 -0.44505,0.29029 -0.41786,0.57676 0.037,0.20925 0.13781,0.36692 0.30834,0.4958 0.20049,0.13995 0.40622,0.2626 0.6503,0.31133 0.13248,0.0177 0.2581,0.0188 0.39171,0.0108 0.0419,-0.002 0.16618,-0.0207 0.1255,-0.0104 -0.25122,0.0637 -0.50566,0.11398 -0.7585,0.17097 0.0424,-0.0113 0.0848,-0.0227 0.12723,-0.0341 0.25158,-0.10271 0.50453,-0.22157 0.71635,-0.39331 0.18154,-0.16541 0.35877,-0.32882 0.50109,-0.53151 0.12317,-0.22301 0.2388,-0.43945 0.23668,-0.70266 -0.004,-0.20169 -0.0332,-0.39693 -0.19809,-0.53172 -0.19019,-0.15101 -0.42393,-0.20218 -0.66122,-0.23245 -0.27957,-0.026 -0.56018,-0.0157 -0.84063,-0.0208 -0.25786,-0.008 -0.5213,-0.036 -0.74632,-0.17332 -0.16943,-0.14941 -0.2485,-0.31563 -0.25983,-0.54308 0.007,-0.2136 0.0424,-0.4236 0.13034,-0.62053 0.14466,-0.21108 0.32854,-0.38963 0.51314,-0.56523 0.39502,-0.27095 0.64917,-0.24883 1.24337,-0.36738 0.12297,-0.0245 0.23805,0.0279 0.33315,0.0988 0.26244,0.27501 0.27207,0.56331 0.20852,0.9276 l -0.90478,0.15232 z"
         id="path5015"
         style="opacity:1;fill:#fffbec;fill-opacity:1;stroke:#5c2d50;stroke-width:0.30000001;stroke-linecap:butt;stroke-linejoin:round;stroke-miterlimit:4;stroke-dasharray:none;stroke-opacity:0.94117647;paint-order:stroke markers fill" />
      <path
         sodipodi:nodetypes="cccccccccccccccccccccccccccccccccccccccccccccccccccccsszcccccccccccccccccccccccccccccccccccccccccccccccccccc"
         inkscape:connector-curvature="0"
         d="m 18.719209,115.10955 c 0.02957,0.12912 0.08254,0.24973 0.150888,0.3621 0.04452,0.0995 0.107239,0.18757 0.174734,0.27204 0.06243,0.0758 0.129872,0.14705 0.196533,0.21901 0.08871,0.0606 0.162259,0.14078 0.250913,0.20095 0.08583,0.0687 0.178707,0.12711 0.265923,0.19383 0.107289,0.0698 0.215862,0.13613 0.331819,0.19043 0.255563,0.11934 0.892873,0.26391 -0.266761,-0.0286 0.161737,0.034 0.324697,0.0624 0.487243,0.0925 0.180788,0.0319 0.36239,0.0588 0.543876,0.0865 0.195172,0.0273 0.392289,0.0296 0.589106,0.0318 0.207717,0.001 0.415584,7.5e-4 0.623243,-0.009 0.217165,-0.011 0.433677,-0.0333 0.649862,-0.0572 0.214262,-0.0268 0.427287,-0.0621 0.640509,-0.0963 0.207958,-0.032 0.412087,-0.0828 0.61099,-0.15222 0.191862,-0.0665 0.374057,-0.15536 0.553635,-0.24996 0.178284,-0.0918 0.347436,-0.19757 0.507788,-0.31831 0.170438,-0.11545 0.324998,-0.24846 0.47088,-0.39358 0.121852,-0.11789 0.227799,-0.25119 0.317211,-0.39528 0.06461,-0.11101 0.0873,-0.22777 0.06539,-0.35306 -0.02902,-0.1226 -0.100107,-0.17196 -0.198326,-0.2371 -0.215103,-0.1081 -0.60082,-0.1816 0.499193,0.10826 0.02068,0.006 -0.04252,-0.008 -0.06394,-0.0117 -0.05733,-0.008 -0.0768,-0.008 -0.135402,-0.008 -0.149555,-7.6e-4 -0.295384,0.0293 -0.439994,0.0653 -0.15291,0.0408 -0.300448,0.0976 -0.444126,0.16405 -0.16718,0.0779 -0.332621,0.1592 -0.495871,0.24523 -0.177252,0.0972 -0.350671,0.20114 -0.524922,0.30359 -0.164319,0.0992 -0.327636,0.20042 -0.483464,0.31292 -0.157061,0.11864 -0.302371,0.25197 -0.446819,0.38562 -0.149351,0.13127 -0.286702,0.27406 -0.420112,0.42138 -0.109582,0.13313 -0.215599,0.26915 -0.314493,0.41046 -0.09454,0.13314 -0.171721,0.2775 -0.243819,0.42374 -0.0742,0.14049 -0.133194,0.28789 -0.183304,0.43842 -0.05046,0.15507 -0.09067,0.31331 -0.128147,0.4719 -0.03069,0.15502 -0.02104,0.31188 0.0011,0.46665 0.01826,0.16561 0.06361,0.32496 0.11154,0.4835 0.05712,0.16614 0.139939,0.32065 0.218749,0.47673 0.08428,0.16731 0.202386,0.31214 0.322784,0.45368 0.157943,0.18017 0.341153,0.33696 0.526913,0.48722 0.20834,0.16538 0.428186,0.31298 0.656629,0.44859 0.226864,0.14246 0.470105,0.25177 0.713352,0.36211 0.260214,0.11299 0.530051,0.19927 0.803358,0.27415 -0.170394,-0.043 -0.341519,-0.0832 -0.511244,-0.12881 -0.04981,-0.0142 0.101517,0.0217 0.152351,0.0321 0.210969,0.0434 0.42174,0.0701 0.635861,0.093 0.345539,0.0389 0.693566,0.0504 1.041362,0.0437 0.354393,-0.006 0.706738,-0.0448 1.056819,-0.10094 0.344887,-0.0577 0.684215,-0.14203 1.019105,-0.24346 0.330659,-0.0928 0.645628,-0.22562 0.948738,-0.38739 0.298371,-0.16634 0.574116,-0.36722 0.83828,-0.58365 0.266453,-0.21756 0.497618,-0.47375 0.724317,-0.73177 0.246667,-0.29214 0.472237,-0.60186 0.680105,-0.92283 0.200274,-0.31593 0.553973,-0.81511 0.785712,-0.90408 0.130233,-0.05 0.413534,-0.0654 0.540909,0.0546 0.17628,0.16607 -0.163185,0.72947 -0.531882,1.08073 -0.368698,0.35126 -0.575378,0.58975 -0.821367,0.88615 -0.22631,0.26244 -0.458787,0.52188 -0.725759,0.74344 -0.26651,0.21965 -0.542883,0.42552 -0.843407,0.59604 -0.104341,0.0572 -0.200588,0.11218 -0.30844,0.16241 -0.20809,0.0969 -0.42667,0.16824 -0.644583,0.23802 -0.336,0.10417 -0.676332,0.1914 -1.022624,0.25207 -0.351403,0.0587 -0.70488,0.10155 -1.06108,0.10919 -0.347873,0.0124 -0.696484,10e-4 -1.042471,-0.0344 -0.160754,-0.0169 -0.322797,-0.0285 -0.482201,-0.0561 -0.375718,-0.0634 -0.743162,-0.17633 -1.113753,-0.25735 -0.273868,-0.0777 -0.543902,-0.16843 -0.804174,-0.2843 -0.244198,-0.11092 -0.485124,-0.22775 -0.713093,-0.36998 -0.227891,-0.13879 -0.446516,-0.29087 -0.65449,-0.45847 -0.186595,-0.15558 -0.374115,-0.31302 -0.530335,-0.50052 -0.121888,-0.14604 -0.2383,-0.29723 -0.321774,-0.46986 -0.08109,-0.15893 -0.162393,-0.31856 -0.217503,-0.48918 -0.04846,-0.16188 -0.09027,-0.32567 -0.109526,-0.4943 -0.02161,-0.16359 -0.02906,-0.32906 0.0044,-0.49236 0.03855,-0.16048 0.07901,-0.32074 0.129812,-0.47787 0.051,-0.15348 0.10874,-0.30492 0.185916,-0.4475 0.07226,-0.15 0.151093,-0.29784 0.247418,-0.4339 0.09901,-0.14513 0.207364,-0.28315 0.318478,-0.41907 0.134963,-0.14842 0.271053,-0.29514 0.422385,-0.42711 0.145861,-0.13529 0.291578,-0.27123 0.448771,-0.39323 0.155252,-0.11733 0.321102,-0.2184 0.486718,-0.31995 0.175577,-0.10115 0.347938,-0.20795 0.525102,-0.30633 0.162708,-0.0877 0.327379,-0.17102 0.495106,-0.2485 0.14404,-0.0721 0.29308,-0.13199 0.447415,-0.17757 0.146323,-0.0392 0.293046,-0.0766 0.445035,-0.081 0.356012,-0.0213 0.746585,0.0625 1.045841,0.25092 0.09918,0.0761 0.169568,0.16553 0.189086,0.29357 0.01532,0.14145 -0.0073,0.27513 -0.07934,0.40029 -0.09145,0.14932 -0.199916,0.28825 -0.325605,0.41014 -0.147221,0.14738 -0.299358,0.28781 -0.474104,0.40214 -0.16049,0.12589 -0.330364,0.23628 -0.511405,0.3298 -0.181643,0.0955 -0.362832,0.19179 -0.557257,0.25872 -0.199525,0.0757 -0.405568,0.13035 -0.615904,0.16447 -0.213725,0.0351 -0.42748,0.0695 -0.64199,0.0991 -0.216341,0.0261 -0.433298,0.0478 -0.650625,0.0615 -0.207907,0.0133 -0.416132,0.0122 -0.624201,0.0129 -0.197699,-0.002 -0.395488,-10e-4 -0.592182,-0.0226 -0.181535,-0.0259 -0.362625,-0.0546 -0.543633,-0.0838 -0.162528,-0.0282 -0.323999,-0.0622 -0.486739,-0.0894 -0.368462,-0.0913 -0.731838,-0.15063 -1.071466,-0.31505 -0.115183,-0.0599 -0.226185,-0.12783 -0.332431,-0.20263 -0.09019,-0.0631 -0.178077,-0.12891 -0.266252,-0.19478 -0.08449,-0.0694 -0.170096,-0.13827 -0.249353,-0.21365 -0.06745,-0.073 -0.134936,-0.14638 -0.195317,-0.22558 -0.06562,-0.0887 -0.123796,-0.18176 -0.172132,-0.28132 -0.06414,-0.11931 -0.111128,-0.24551 -0.151483,-0.375 l 0.691895,0.12717 z"
         id="path5118"
         style="opacity:1;fill:#fffbec;fill-opacity:1;stroke:#5c2d50;stroke-width:0.30000001;stroke-linecap:butt;stroke-linejoin:round;stroke-miterlimit:4;stroke-dasharray:none;stroke-opacity:0.94117647;paint-order:stroke markers fill" />
      <path
         sodipodi:nodetypes="cccccccccccccccccccccasccccccccccccccccccccc"
         inkscape:connector-curvature="0"
         d="m 30.599744,116.9521 c -0.07243,-0.0624 -0.08795,-0.16963 -0.105397,-0.26404 -0.01604,-0.0972 -0.02926,-0.194 -0.02934,-0.29298 -3.18e-4,-0.0943 0.0079,-0.1878 0.01799,-0.28125 0.0105,-0.0878 0.03159,-0.17342 0.05243,-0.25882 0.02241,-0.0941 0.05309,-0.18519 0.08234,-0.27677 0.02786,-0.096 0.06737,-0.18685 0.102681,-0.27955 0.03322,-0.0842 0.07158,-0.16593 0.110507,-0.24706 0.03282,-0.0676 0.06681,-0.13388 0.107996,-0.19553 0.04203,-0.0683 0.095,-0.12581 0.146823,-0.18459 0.05558,-0.0634 0.113268,-0.1246 0.174029,-0.18188 0.158489,-0.13895 0.327521,-0.2648 0.507577,-0.36675 0.07267,-0.0479 0.151499,-0.082 0.2259,-0.1262 0.07209,-0.0362 0.142705,-0.0755 0.216617,-0.10711 0.06828,-0.0335 0.14056,-0.0533 0.211518,-0.0778 0.06831,-0.0196 0.138375,-0.0286 0.207768,-0.0422 0.06779,-0.0173 0.135449,-0.0112 0.203785,-0.003 0.0599,0.006 0.120043,0.0104 0.180193,0.0104 0.05611,0.009 0.11163,0.0182 0.166673,0.0331 0.05086,0.0176 0.09803,0.0448 0.146415,0.0689 0.04792,0.0263 0.09548,0.0534 0.139144,0.0878 0.03264,0.0257 0.116613,0.12898 0.139566,0.20977 0.05898,0.20759 0.05081,0.46004 -0.02165,0.64706 0,0 -0.154066,-0.34601 -0.175377,-0.36175 -0.108574,-0.1539 -0.148761,-0.2009 -0.380004,-0.34054 -0.04609,-0.0241 -0.09242,-0.0483 -0.141947,-0.0625 -0.05322,-0.0134 -0.107616,-0.0219 -0.162016,-0.0265 -0.06038,-0.002 -0.120673,-0.006 -0.180842,-0.013 -0.06644,-0.006 -0.132077,-0.003 -0.197481,0.0122 -0.06856,0.0137 -0.1383,0.0214 -0.204852,0.0455 -0.07106,0.0224 -0.140935,0.0489 -0.209109,0.0806 -0.07243,0.0336 -0.143149,0.0715 -0.213843,0.10958 -0.231784,0.16379 -0.09467,0.0567 -0.299736,0.2305 -0.04919,0.0603 -0.107305,0.11159 -0.147401,0.18064 -0.04344,0.0589 -0.07909,0.12285 -0.111683,0.18984 -0.0391,0.0806 -0.07808,0.16134 -0.11268,0.24439 -0.03611,0.0916 -0.07402,0.1826 -0.104032,0.27686 -0.02738,0.0914 -0.06059,0.18063 -0.08305,0.2738 -0.01941,0.0844 -0.04254,0.16772 -0.0549,0.25392 -0.01,0.0924 -0.02056,0.18439 -0.02054,0.27765 -0.0016,0.0976 0.02878,0.23128 0.04446,0.32713 0.02357,0.0832 0.07238,0.27105 0.06078,0.42015 -0.111573,0.0451 -0.172811,0.0291 -0.289308,0.01 z"
         id="path5122"
         style="opacity:1;fill:#fffbec;fill-opacity:1;stroke:#5c2d50;stroke-width:0.30000001;stroke-linecap:butt;stroke-linejoin:round;stroke-miterlimit:4;stroke-dasharray:none;stroke-opacity:0.94117647;paint-order:stroke markers fill" />
    </g>
  </g>
</svg>
